<svg xmlns="http://www.w3.org/2000/svg" viewBox="0 0 158.05 137.3"><defs><style>.cls-1{fill:#e5bd99;}.cls-2{fill:#efd0b4;}.cls-3{fill:#052d3a;}</style></defs><title>Asset 5</title><g id="Layer_2" data-name="Layer 2"><g id="圖層_1" data-name="圖層 1"><path class="cls-1" d="M66.86,110.2,87.78,79.54l-19.25-6.9-12,31L27.32,130h0a4.28,4.28,0,0,0-.44,6,4.22,4.22,0,0,0,5.53.5h0L65.3,111.9l0,0a5.44,5.44,0,0,0,1.37-1.38Z"/><path class="cls-2" d="M51.83,100,78.42,75.78,64,65.85,41.4,91.28,3.51,98.85c-1.83.65-4.24,3.44-3.3,6.06C.81,106.58,3.3,108.37,5,108l44-6.43a5.43,5.43,0,0,0,1.92-.79C51,100.72,51.76,100.08,51.83,100Z"/><path class="cls-1" d="M156.32,14.74a5.08,5.08,0,0,0-3.48-1.37,4.51,4.51,0,0,0-2.64.87L131.1,28.32s-22.3,5.1-22.3,5.1A5.07,5.07,0,0,0,111,43.29l23.14-5.23a20,20,0,0,0,3.35-1.9l18.69-13.78a4.9,4.9,0,0,0,.8-6.87A5.65,5.65,0,0,0,156.32,14.74Z"/><path class="cls-3" d="M107.47,29.07c-5.85-4.41-15-2.27-20.26,4.76l-27,36.39,4.24,18.29,19.73-3.62,24.28-35C113.78,42.83,113.32,33.48,107.47,29.07Z"/><path class="cls-2" d="M95.52,40.34c3.44-3.82,3-8.65,1.08-13a17.72,17.72,0,0,0-9.39,6.53l-5.13,6.91C86.07,43.72,92.23,44.1,95.52,40.34Z"/><path class="cls-2" d="M92.62,27.73l-21.53-8.3s-5-3-7.72.43L48.54,39a5.18,5.18,0,0,0,8.16,6.33l12.16-15.7,20,7.73a5.17,5.17,0,0,0,3.72-9.63Z"/><path class="cls-1" d="M105.92,22.2,101.63,30c.77,1.3,6.25,9.79,6.25,9.79l6.6-13.6Z"/><path class="cls-1" d="M109,43.34c3.94-.74,2.82-6.3,2-10.09l-2.35-1-5.48-5.18a12,12,0,0,0-2.42-.32,12.18,12.18,0,0,0-2.37.13S104.87,44.13,109,43.34Z"/><path class="cls-2" d="M121.91,17c-.1-2.49,0-6.06-1.21-8-2-3.18-6.23-3.91-9.94-3.77-5.89.23-12.16,5.11-11.9,11.81s7,12.69,12.85,12.46S122.17,23.67,121.91,17Z"/><path class="cls-3" d="M122.42,8.09a13.08,13.08,0,0,0-1.92-3.52c0-.07-.08-.15-.12-.21A9.52,9.52,0,0,0,116.21.63c-4-1.65-18.15-.74-19.76,11.08a15.05,15.05,0,0,0,6.26,13.65S99.55,15,106,10.44c2.15-1.5,4.69-2.12,10.1-1.86,1.66.07,3.93.66,5,2.48a26.17,26.17,0,0,1,.76,5.71A14.53,14.53,0,0,0,122.42,8.09Z"/></g></g></svg>