<svg xmlns="http://www.w3.org/2000/svg" viewBox="0 0 241.35 194.66"><defs><style>.cls-1{fill:#fff;}.cls-2{fill:#7c7c7c;}.cls-3{fill:none;stroke:#c1c1c1;stroke-linecap:round;stroke-linejoin:round;stroke-width:1.48px;}.cls-4{fill:#4c4c4c;}</style></defs><title>Asset 3</title><g id="Layer_2" data-name="Layer 2"><g id="圖層_1" data-name="圖層 1"><path class="cls-1" d="M173.69,145.65c-3.6-2.62-65.07-20.9-98.19-45S10.32,51.6,9.19,42.86c5.91,1.86,18.14,2.3,18.25.93.12-1.68-8.43-2.09-13.56-5.12C9.29,36-6.09,21.87,2.63.86c9.09,3.53,46,27.08,59,43.37s44.41,18.84,65,42.85S173.69,145.65,173.69,145.65Z"/><path class="cls-2" d="M1.76.23C3-2.91,73.91,26.91,93,40.08l8.81,5.74s26.81-19,56.27,2.81c-8.35,3.62-15.48,3.44-25,22.92,17.13,15.8,36.38,56.85,52.74,65.22,0,0,27.69-15.09,55.6,1-8.63,1.88-38.4,11-43.53,15.69-4.59,4.81-20.66,24.81-18.7,41.2-2.7-1.74-11.2-31.24-3-47.31-3.17-2.31-15.88-11.76-15.88-11.76s-8.93,10.78-12.93,7.88-1.56-11.7-.33-14.77c-2-.45-53.8-24.67-64.39-32.81-5.41,5.32-8.85,8.54-13.24,14.59s-6.19,13.43-7.8,15.65-3.12,1.69-4.69.55-14-28.51,2.6-50.59l-12.32-9c-2.48-1.8-11.38-11.82-4-22.26a23,23,0,0,0-6.56-8.69c-4-2.91-19.44-8.22-24.41-11.83S-2.95,12.1,1.76.23Z"/><path class="cls-3" d="M57.24,45.65S50.71,56.54,46.08,59.34"/><path class="cls-3" d="M60.26,47.85S53.73,58.73,49.1,61.53"/><path class="cls-3" d="M66.3,52.23S59.77,63.12,55.14,65.92"/><path class="cls-3" d="M63.28,50S56.75,60.92,52.12,63.73"/><path class="cls-4" d="M34.67,21.52,46,24A7.9,7.9,0,0,1,40,27.83,5,5,0,0,1,34.67,21.52Z"/></g></g></svg>