<svg xmlns="http://www.w3.org/2000/svg" viewBox="0 0 430.77 380.88"><defs><style>.cls-1{fill:#fff;}.cls-2{fill:#7c7c7c;}.cls-3{fill:none;stroke:#c1c1c1;stroke-linecap:round;stroke-linejoin:round;stroke-width:2.74px;}.cls-4{fill:#4c4c4c;}</style></defs><title>Asset 4</title><g id="Layer_2" data-name="Layer 2"><g id="圖層_1" data-name="圖層 1"><path class="cls-1" d="M304.87,289.72c-6.33-5.27-117.63-46.48-175.89-94.93S14.55,96.25,13.52,80c10.68,4.17,33.21,6.46,33.58,3.94.42-3.08-15.32-4.88-24.41-11.1C14.53,67.24-12.16,39.38,6.48,1.62,22.85,9.24,88.16,57.21,110.25,88.86S190,129,225.16,175.86,304.87,289.72,304.87,289.72Z"/><path class="cls-2" d="M5,.35C7.64-5.3,135,58.36,168.54,85l15.57,11.67s51.82-31.9,103.58,12c-15.86,5.67-29,4.48-49,39.3,29.71,31.25,60.29,109.38,89.5,126.82,0,0,52.95-24.52,102.55,8.59-16.15,2.42-72.24,15.76-82.28,23.7-9.06,8.32-41.17,43.32-39.53,73.81-4.77-3.54-16.89-59,.12-87.74-5.57-4.63-27.9-23.63-27.9-23.63s-17.81,18.83-24.84,13-1.47-21.8,1.18-27.3c-3.61-1.08-96.38-52.09-114.95-68.4C132,196,125.2,201.49,116.36,212.13s-13.06,24.07-16.3,28-6,2.74-8.73.45-22.45-54.34,10.92-93.12l-21.66-18C76.22,125.78,61,106.21,76,87.81c.16-.19-4-11-11.06-16.83S30,53.44,21.27,46.17-5.19,21.7,5,.35Z"/><path class="cls-3" d="M101.92,91s-13.39,19.31-22.27,23.93"/><path class="cls-3" d="M107.23,95.37S93.85,114.68,85,119.29"/><path class="cls-3" d="M117.85,104.2s-13.38,19.31-22.27,23.93"/><path class="cls-3" d="M112.54,99.79S99.16,119.1,90.27,123.71"/><path class="cls-4" d="M63.15,43.66l20.54,6A14.58,14.58,0,0,1,72.27,56,9.29,9.29,0,0,1,63.15,43.66Z"/></g></g></svg>