<svg xmlns="http://www.w3.org/2000/svg" viewBox="0 0 335.96 319.77"><defs><style>.cls-1{fill:#fff;}.cls-2{fill:#7c7c7c;}.cls-3{fill:none;stroke:#c1c1c1;stroke-linecap:round;stroke-linejoin:round;stroke-width:2.21px;}.cls-4{fill:#4c4c4c;}</style></defs><title>Asset 1</title><g id="Layer_2" data-name="Layer 2"><g id="圖層_1" data-name="圖層 1"><path class="cls-1" d="M101.66,246.18c4.87-4.51,92.73-42.49,137.56-84s87.91-84.27,88-97.43c-8.42,3.82-26.47,6.63-26.88,4.61-.47-2.46,12.13-4.58,19.18-10,6.34-4.84,26.63-28.43,10-58-12.85,6.84-63.38,48.28-79.81,74.73s-62.47,35.77-88.79,75S101.66,246.18,101.66,246.18Z"/><path class="cls-2" d="M330.72.25c-2.4-4.44-102.2,52.3-128.09,75.19l-12,10.07S147.5,62.05,107.7,99.63c13,3.89,23.56,2.36,41.13,29.54-22.59,26.45-43.84,90.69-66.61,106,0,0-43.7-17.46-82.22,11.34,13.11,1.25,58.86,9.58,67.28,15.54,7.65,6.31,35,33.12,35,57.74,3.69-3,11.06-48.27-3.87-70.65,4.28-4,21.45-20.23,21.45-20.23s15.15,14.39,20.56,9.38.25-17.61-2.12-21.93c2.85-1,75.36-46.1,89.62-60,8.95,6.92,14.62,11.09,22.2,19.27s11.55,18.82,14.33,21.82,4.93,1.95,7.05,0,15.74-44.73-12.81-74.52l16.67-15.44c3.36-3.11,14.78-19.53,1.92-33.69-.13-.15,2.78-9,8.19-14s27.35-15.63,34.08-21.86S339.81,17,330.72.25Z"/><path class="cls-3" d="M256.54,77.38s11.61,15,19,18.31"/><path class="cls-3" d="M252.45,81.17s11.61,15,19,18.3"/><path class="cls-3" d="M244.28,88.74s11.61,15,19,18.3"/><path class="cls-3" d="M248.36,85s11.62,15,19,18.31"/><path class="cls-4" d="M285.72,37.63l-16.28,5.72a11.74,11.74,0,0,0,9.47,4.56A7.48,7.48,0,0,0,285.72,37.63Z"/></g></g></svg>